# xmcd
#
# Track frame offsets:
#	150
#	11222
#	18202
#	27232
#	39980
#	47239
#	52055
#	56815
#	74870
#	86822
#	94104
#	98957
#	109492
#	129032
#	140885
#	153742
#	162375
#	166990
#	181520
#	188570
#	203552
#	208482
#
# Disc length: 3009 seconds
#
# Revision: 1
# Processed by: cddbd v1.5.1PL2 Copyright (c) Steve Scherf et al.
# Submitted via: audiograbber 1.80
#
DISCID=420bbf16
DTITLE=Liturgia VII - Liturgia VII Tempo Comum Ano A 20 a 34
DYEAR=2002
DGENRE=Religioso
TTITLE0=Deus nosso pai protetor Entra 20 a 23
TTITLE1=Salmo 20 e 21
TTITLE2=Salmo 22 A minh alma tem sede de vos
TTITLE3=A liberdade havera Oferta 22 AO 26
TTITLE4=Salmo 23 a 26
TTITLE5=Aclama Evang 20 a 22
TTITLE6=Aclama Evang 23 a 26
TTITLE7=Va e mostre o erro Comunh 23 a 26
TTITLE8=Senhor escuta as preces Entra 24 a 27
TTITLE9=Salmo 27 a 31
TTITLE10=Aclama Evang 27 a 31
TTITLE11=Bendito seja Deus Pai Oferta 27 AO 34
TTITLE12=O Pai somos nos esta vinha Comunh 27 AO 31
TTITLE13=Exulte de alegria Entra 24 a 30
TTITLE14=Nao me abandones Senhor Entra 31 a 33
TTITLE15=Salmo 32 A minhalma tem sede de vos
TTITLE16=Aclama Evang 32 e 33
TTITLE17=E preciso ficar acordado Comunh 32 E 33
TTITLE18=Salmo 33 e 34
TTITLE19=O Senhor vai falar nos de pazEntra 34
TTITLE20=Aclama Evang 34
TTITLE21=Cristo Rei Comunh 34
EXTD=YEAR: 2002
EXTT0=
EXTT1=
EXTT2=
EXTT3=
EXTT4=
EXTT5=
EXTT6=
EXTT7=
EXTT8=
EXTT9=
EXTT10=
EXTT11=
EXTT12=
EXTT13=
EXTT14=
EXTT15=
EXTT16=
EXTT17=
EXTT18=
EXTT19=
EXTT20=
EXTT21=
PLAYORDER=
